RobotoSerifTextWide-Super 05h.ufo
<glyph name="logicalnot" format="2">
  <advance width="664"/>
  <unicode hex="00AC"/>
  <outline>
    <contour>
      <point x="442" y="331" type="line"/>
      <point x="442" y="130" type="line"/>
      <point x="601" y="130" type="line"/>
      <point x="601" y="415" type="line"/>
      <point x="65" y="415" type="line"/>
      <point x="65" y="274" type="line"/>
      <point x="493" y="274" type="line"/>
    </contour>
  </outline>
</glyph>
<glyph name="divide" format="2">
  <advance width="664"/>
  <unicode hex="00F7"/>
  <outline>
    <contour>
      <point x="445.0" y="128" type="curve" smooth="yes"/>
      <point x="445.0" y="183"/>
      <point x="404.0" y="221"/>
      <point x="332.0" y="221" type="curve" smooth="yes"/>
      <point x="260.0" y="221"/>
      <point x="219.0" y="183"/>
      <point x="219.0" y="128" type="curve" smooth="yes"/>
      <point x="219.0" y="73"/>
      <point x="260.0" y="35"/>
      <point x="332.0" y="35" type="curve" smooth="yes"/>
      <point x="404.0" y="35"/>
      <point x="445.0" y="73"/>
    </contour>
    <contour>
      <point x="445.0" y="554" type="curve" smooth="yes"/>
      <point x="445.0" y="609"/>
      <point x="404.0" y="647"/>
      <point x="332.0" y="647" type="curve" smooth="yes"/>
      <point x="260.0" y="647"/>
      <point x="219.0" y="609"/>
      <point x="219.0" y="554" type="curve" smooth="yes"/>
      <point x="219.0" y="499"/>
      <point x="260.0" y="461"/>
      <point x="332.0" y="461" type="curve" smooth="yes"/>
      <point x="404.0" y="461"/>
      <point x="445.0" y="499"/>
    </contour>
    <component base="minus"/>
  </outline>
</glyph>
<glyph name="Uogonek" format="2">
  <advance width="873"/>
  <unicode hex="0172"/>
  <outline>
    <contour>
      <point x="791" y="262" type="line" smooth="yes"/>
      <point x="791" y="170.1946902654867"/>
      <point x="759.2692430470919" y="97.20436520441915"/>
      <point x="676" y="34" type="curve" smooth="yes"/>
      <point x="597.4052079947382" y="-25.69224709260382" name="inserted"/>
      <point x="568.0" y="-70.75524475524475"/>
      <point x="568" y="-106" type="curve" smooth="yes"/>
      <point x="568" y="-134" name="inserted"/>
      <point x="582" y="-148.0"/>
      <point x="611" y="-148" type="curve" smooth="yes"/>
      <point x="636" y="-148.0" name="inserted"/>
      <point x="659" y="-138"/>
      <point x="679" y="-118" type="curve"/>
      <point x="726" y="-175" type="line"/>
      <point x="678" y="-221" name="inserted"/>
      <point x="613" y="-244.0"/>
      <point x="527" y="-244" type="curve" smooth="yes"/>
      <point x="420.6484848484848" y="-244.0"/>
      <point x="363.0" y="-206.0"/>
      <point x="363" y="-136" type="curve" smooth="yes"/>
      <point x="363.0" y="-73.38181818181818" name="inserted"/>
      <point x="408.12519552211006" y="-34.95305167920871"/>
      <point x="576" y="28" type="curve"/>
      <point x="578.9828227962637" y="27.005725734578785"/>
      <point x="583.8712979155648" y="16.785496525941323"/>
      <point x="581" y="12" type="curve"/>
      <point x="545" y="0"/>
      <point x="496" y="-10"/>
      <point x="456" y="-10" type="curve" smooth="yes"/>
      <point x="226" y="-10"/>
      <point x="82" y="71"/>
      <point x="82" y="262" type="curve" smooth="yes"/>
      <point x="82" y="598" type="line" smooth="yes"/>
      <point x="82" y="627"/>
      <point x="62" y="634"/>
      <point x="35" y="634" type="curve" smooth="yes"/>
      <point x="24" y="634" type="line"/>
      <point x="24" y="710" type="line"/>
      <point x="451" y="710" type="line"/>
      <point x="451" y="634" type="line"/>
      <point x="440" y="634" type="line" smooth="yes"/>
      <point x="419" y="634"/>
      <point x="391" y="631"/>
      <point x="391" y="624" type="curve" smooth="yes"/>
      <point x="391" y="262" type="line" smooth="yes"/>
      <point x="391" y="139"/>
      <point x="431" y="95"/>
      <point x="531" y="95" type="curve" smooth="yes"/>
      <point x="620" y="95"/>
      <point x="674" y="145"/>
      <point x="674" y="262" type="curve" smooth="yes"/>
      <point x="674" y="614" type="line" smooth="yes"/>
      <point x="674" y="628"/>
      <point x="647" y="634"/>
      <point x="625" y="634" type="curve" smooth="yes"/>
      <point x="616" y="634" type="line"/>
      <point x="616" y="710" type="line"/>
      <point x="850" y="710" type="line"/>
      <point x="850" y="634" type="line"/>
      <point x="838" y="634" type="line" smooth="yes"/>
      <point x="811" y="634"/>
      <point x="791" y="626"/>
      <point x="791" y="596" type="curve" smooth="yes"/>
    </contour>
  </outline>
</glyph>
<glyph name="Oogonek" format="2">
  <advance width="968"/>
  <unicode hex="01EA"/>
  <outline>
    <contour>
      <point x="484" y="83" type="curve" smooth="yes"/>
      <point x="400" y="83"/>
      <point x="354" y="170"/>
      <point x="354" y="355" type="curve" smooth="yes"/>
      <point x="354" y="540"/>
      <point x="400" y="627"/>
      <point x="484" y="627" type="curve" smooth="yes"/>
      <point x="568" y="627"/>
      <point x="614" y="540"/>
      <point x="614" y="355" type="curve" smooth="yes"/>
      <point x="614" y="170"/>
      <point x="568" y="83"/>
    </contour>
    <contour>
      <point x="785" y="73" type="curve" smooth="yes"/>
      <point x="879.1881184525903" y="137.81762990285785"/>
      <point x="935.0" y="234.42756183745584"/>
      <point x="935" y="355" type="curve" smooth="yes"/>
      <point x="935" y="575"/>
      <point x="758" y="720"/>
      <point x="484" y="720" type="curve" smooth="yes"/>
      <point x="210" y="720"/>
      <point x="33" y="575"/>
      <point x="33" y="355" type="curve" smooth="yes"/>
      <point x="33" y="134"/>
      <point x="210" y="-10"/>
      <point x="484" y="-10" type="curve" smooth="yes"/>
      <point x="530" y="-10"/>
      <point x="574" y="-6"/>
      <point x="614" y="2" type="curve"/>
      <point x="654" y="33" type="line"/>
      <point x="454" y="-13"/>
      <point x="356.0" y="-57.19662921348315"/>
      <point x="356" y="-136" type="curve" smooth="yes"/>
      <point x="356" y="-205"/>
      <point x="414" y="-244"/>
      <point x="521" y="-244" type="curve" smooth="yes"/>
      <point x="621" y="-244"/>
      <point x="678" y="-216"/>
      <point x="720" y="-175" type="curve"/>
      <point x="673" y="-118" type="line"/>
      <point x="659.9040629071799" y="-131.0959370928201"/>
      <point x="631.3970588235294" y="-148.0"/>
      <point x="604" y="-148" type="curve" smooth="yes"/>
      <point x="578.390243902439" y="-148.0"/>
      <point x="562.0" y="-134.025"/>
      <point x="562" y="-105" type="curve" smooth="yes"/>
      <point x="562.0" y="-41.077348066298335"/>
      <point x="644.7694368608277" y="-21.80376099549683"/>
    </contour>
  </outline>
</glyph>
<glyph name="circumflex" format="2">
  <advance width="588"/>
  <unicode hex="02C6"/>
  <anchor x="293" y="529.0" name="_top"/>
  <outline>
    <contour>
      <point x="400" y="731" type="line"/>
      <point x="540" y="582" type="line"/>
      <point x="540" y="557" type="line"/>
      <point x="422" y="557" type="line"/>
      <point x="208" y="663" type="line"/>
      <point x="375" y="663" type="line"/>
      <point x="159" y="557" type="line"/>
      <point x="48" y="557" type="line"/>
      <point x="48" y="582" type="line"/>
      <point x="190" y="731" type="line"/>
    </contour>
  </outline>
</glyph>
<glyph name="ring" format="2">
  <advance width="588"/>
  <unicode hex="02DA"/>
  <anchor x="294" y="526.0" name="_top"/>
  <outline>
    <contour>
      <point x="250.0" y="663.0" type="curve" smooth="yes"/>
      <point x="250.0" y="694.0"/>
      <point x="269.0" y="708.0"/>
      <point x="294.0" y="708.0" type="curve" smooth="yes"/>
      <point x="319.0" y="708.0"/>
      <point x="338.0" y="694.0"/>
      <point x="338.0" y="663.0" type="curve" smooth="yes"/>
      <point x="338.0" y="632.0"/>
      <point x="319.0" y="618.0"/>
      <point x="294.0" y="618.0" type="curve" smooth="yes"/>
      <point x="269.0" y="618.0"/>
      <point x="250.0" y="632.0"/>
    </contour>
    <contour>
      <point x="455.0" y="663.0" type="curve" smooth="yes"/>
      <point x="455.0" y="737.6727272727272"/>
      <point x="385.0" y="774.0"/>
      <point x="294.0" y="774.0" type="curve" smooth="yes"/>
      <point x="203.0" y="774.0"/>
      <point x="133.0" y="737.6727272727272"/>
      <point x="133.0" y="663.0" type="curve" smooth="yes"/>
      <point x="133.0" y="588.3272727272728"/>
      <point x="203.0" y="552.0"/>
      <point x="294.0" y="552.0" type="curve" smooth="yes"/>
      <point x="385.0" y="552.0"/>
      <point x="455.0" y="588.3272727272728"/>
    </contour>
  </outline>
</glyph>
<glyph name="tilde" format="2">
  <advance width="588"/>
  <unicode hex="02DC"/>
  <anchor x="293" y="516.0" name="_top"/>
  <outline>
    <contour>
      <point x="366" y="560" type="curve" smooth="yes"/>
      <point x="312" y="560.0"/>
      <point x="239" y="606.0"/>
      <point x="219" y="606" type="curve" smooth="yes"/>
      <point x="192" y="606.0"/>
      <point x="182" y="593"/>
      <point x="174" y="558" type="curve"/>
      <point x="68" y="587" type="line"/>
      <point x="91" y="690"/>
      <point x="129" y="738.0"/>
      <point x="216" y="738" type="curve" smooth="yes"/>
      <point x="260" y="738.0"/>
      <point x="339" y="694.0"/>
      <point x="366.0" y="694.0" type="curve" smooth="yes" name="inserted"/>
      <point x="393" y="694.0"/>
      <point x="402" y="706"/>
      <point x="415" y="742" type="curve"/>
      <point x="520" y="714" type="line"/>
      <point x="495" y="611" name="inserted"/>
      <point x="444" y="560.0"/>
    </contour>
  </outline>
</glyph>
<glyph name="franc" format="2">
  <advance width="664"/>
  <unicode hex="20A3"/>
  <outline>
    <contour>
      <point x="404" y="624" type="line"/>
      <point x="432" y="624" type="line" smooth="yes"/>
      <point x="501" y="624"/>
      <point x="532" y="617"/>
      <point x="536" y="574" type="curve" smooth="yes"/>
      <point x="542" y="513" type="line"/>
      <point x="649" y="513" type="line"/>
      <point x="649" y="710" type="line"/>
      <point x="49" y="710" type="line"/>
      <point x="49" y="634" type="line"/>
      <point x="61" y="634" type="line" smooth="yes"/>
      <point x="88" y="634"/>
      <point x="107" y="627"/>
      <point x="107" y="598" type="curve" smooth="yes"/>
      <point x="107" y="112" type="line" smooth="yes"/>
      <point x="107" y="83"/>
      <point x="88" y="76"/>
      <point x="61" y="76" type="curve" smooth="yes"/>
      <point x="49" y="76" type="line"/>
      <point x="49" y="0" type="line"/>
      <point x="491" y="0" type="line"/>
      <point x="491" y="76" type="line"/>
      <point x="471" y="76" type="line" smooth="yes"/>
      <point x="441" y="76"/>
      <point x="404" y="77"/>
      <point x="404" y="112" type="curve" smooth="yes"/>
    </contour>
    <contour>
      <point x="372" y="419" type="line"/>
      <point x="372" y="346" type="line"/>
      <point x="590" y="333" type="line"/>
      <point x="590" y="432" type="line"/>
    </contour>
    <contour>
      <point x="49" y="252" type="line"/>
      <point x="49" y="174" type="line"/>
      <point x="522" y="174" type="line"/>
      <point x="522" y="252" type="line"/>
    </contour>
  </outline>
</glyph>
<glyph name="peseta" format="2">
  <advance width="664"/>
  <unicode hex="20A7"/>
  <outline>
    <contour>
      <point x="11" y="0" type="line"/>
      <point x="246" y="0" type="line"/>
      <point x="246" y="76" type="line"/>
      <point x="239" y="76" type="line" smooth="yes"/>
      <point x="226.02702702702703" y="76"/>
      <point x="209" y="79.0"/>
      <point x="209" y="84" type="curve" smooth="yes"/>
      <point x="209" y="255" type="line"/>
      <point x="225" y="255" type="line" smooth="yes"/>
      <point x="356.8551401869159" y="255"/>
      <point x="428.0" y="363.0"/>
      <point x="428" y="486" type="curve" smooth="yes"/>
      <point x="428.0" y="622.0"/>
      <point x="356.65044247787614" y="710"/>
      <point x="213" y="710" type="curve" smooth="yes"/>
      <point x="11" y="710" type="line"/>
      <point x="11" y="634" type="line"/>
      <point x="12" y="634" type="line" smooth="yes"/>
      <point x="24" y="634"/>
      <point x="32" y="629"/>
      <point x="32" y="609" type="curve" smooth="yes"/>
      <point x="32" y="101" type="line" smooth="yes"/>
      <point x="32" y="81"/>
      <point x="24" y="76"/>
      <point x="12" y="76" type="curve" smooth="yes"/>
      <point x="11" y="76" type="line"/>
    </contour>
    <contour>
      <point x="219" y="617" type="line" smooth="yes"/>
      <point x="244.0" y="617.0"/>
      <point x="254.0" y="580.0"/>
      <point x="254" y="485" type="curve" smooth="yes"/>
      <point x="254.0" y="390.0"/>
      <point x="247.0" y="347.0"/>
      <point x="219" y="347" type="curve" smooth="yes"/>
      <point x="209" y="347" type="line"/>
      <point x="209" y="617" type="line"/>
    </contour>
    <contour>
      <point x="384" y="418" type="line"/>
      <point x="662" y="418" type="line"/>
      <point x="662" y="508" type="line"/>
      <point x="510" y="508" type="line"/>
      <point x="467" y="567" type="line"/>
      <point x="467" y="514"/>
      <point x="448" y="503"/>
      <point x="413" y="503" type="curve" smooth="yes"/>
      <point x="384" y="503" type="line"/>
    </contour>
    <contour>
      <point x="609" y="119" type="curve" smooth="yes"/>
      <point x="609" y="648" type="line"/>
      <point x="467" y="648" type="line"/>
      <point x="467" y="500" type="line"/>
      <point x="430" y="492" type="line"/>
      <point x="430" y="109" type="line" smooth="yes"/>
      <point x="430" y="21.733333333333334"/>
      <point x="486.0" y="-10.0"/>
      <point x="585" y="-10" type="curve" smooth="yes"/>
      <point x="622" y="-10"/>
      <point x="646" y="-7"/>
      <point x="662" y="-2" type="curve"/>
      <point x="662" y="89" type="line"/>
      <point x="659" y="88"/>
      <point x="647" y="86"/>
      <point x="640" y="86" type="curve" smooth="yes"/>
      <point x="620.0" y="86.0"/>
      <point x="609.0" y="95.0"/>
    </contour>
  </outline>
</glyph>
<glyph name="dong" format="2">
  <advance width="664"/>
  <unicode hex="20AB"/>
  <outline>
    <contour>
      <point x="284" y="250" type="curve" smooth="yes"/>
      <point x="284" y="353"/>
      <point x="292" y="418"/>
      <point x="328" y="418" type="curve" smooth="yes"/>
      <point x="360" y="418"/>
      <point x="367" y="372"/>
      <point x="371" y="306" type="curve"/>
      <point x="420" y="314" type="line"/>
      <point x="402" y="456"/>
      <point x="348" y="523"/>
      <point x="236" y="523" type="curve" smooth="yes"/>
      <point x="101" y="523"/>
      <point x="17" y="418"/>
      <point x="17" y="250" type="curve" smooth="yes"/>
      <point x="17.0" y="86.0"/>
      <point x="94.27102803738319" y="-10.0"/>
      <point x="229" y="-10" type="curve" smooth="yes"/>
      <point x="330.0810810810811" y="-10.0"/>
      <point x="371.94418175338217" y="46.846499821801004"/>
      <point x="416" y="168" type="curve"/>
      <point x="382" y="215" type="line"/>
      <point x="371" y="141"/>
      <point x="352" y="95"/>
      <point x="325" y="95" type="curve" smooth="yes"/>
      <point x="294" y="95"/>
      <point x="284" y="149"/>
    </contour>
    <contour>
      <point x="355" y="731" type="line"/>
      <point x="355" y="100" type="line"/>
      <point x="371" y="112" type="line"/>
      <point x="371" y="0" type="line"/>
      <point x="647" y="0" type="line"/>
      <point x="647" y="74" type="line"/>
      <point x="639" y="75" type="line" smooth="yes"/>
      <point x="620" y="77"/>
      <point x="613" y="85"/>
      <point x="613" y="103" type="curve" smooth="yes"/>
      <point x="613" y="731" type="line"/>
    </contour>
    <contour>
      <point x="86" y="-92" type="line"/>
      <point x="86" y="-190" type="line"/>
      <point x="605" y="-190" type="line"/>
      <point x="605" y="-92" type="line"/>
    </contour>
    <contour>
      <point x="218" y="662" type="line"/>
      <point x="218" y="574" type="line"/>
      <point x="657" y="574" type="line"/>
      <point x="657" y="662" type="line"/>
    </contour>
  </outline>
</glyph>
<glyph name="baht" format="2">
  <advance width="664"/>
  <outline>
    <contour>
      <point x="280" y="790" type="line"/>
      <point x="280" y="676" type="line"/>
      <point x="306" y="660" type="line"/>
      <point x="306" y="46" type="line"/>
      <point x="280" y="36" type="line"/>
      <point x="280" y="-110" type="line"/>
      <point x="410" y="-110" type="line"/>
      <point x="410" y="38" type="line"/>
      <point x="383" y="50" type="line"/>
      <point x="383" y="662" type="line"/>
      <point x="410" y="673" type="line"/>
      <point x="410" y="790" type="line"/>
    </contour>
    <contour>
      <point x="402" y="708" type="curve"/>
      <point x="11" y="708" type="line"/>
      <point x="11" y="632" type="line"/>
      <point x="23" y="632" type="line" smooth="yes"/>
      <point x="40" y="632"/>
      <point x="54" y="625"/>
      <point x="54" y="596" type="curve" smooth="yes"/>
      <point x="54" y="114" type="line" smooth="yes"/>
      <point x="54" y="85"/>
      <point x="40" y="78"/>
      <point x="23" y="78" type="curve" smooth="yes"/>
      <point x="11" y="78" type="line"/>
      <point x="11" y="2" type="line"/>
      <point x="396" y="2" type="line" smooth="yes"/>
      <point x="578" y="2"/>
      <point x="665" y="77"/>
      <point x="665" y="202" type="curve" smooth="yes"/>
      <point x="665" y="318"/>
      <point x="564" y="371"/>
      <point x="450" y="380" type="curve"/>
      <point x="459" y="371" type="line"/>
      <point x="570.0107014744575" y="381.000964096798"/>
      <point x="651.0" y="435.76190476190476"/>
      <point x="651" y="541" type="curve" smooth="yes"/>
      <point x="651.0" y="644.7573964497042"/>
      <point x="571.0" y="708.0"/>
    </contour>
    <contour>
      <point x="339" y="411" type="curve"/>
      <point x="258" y="411" type="line"/>
      <point x="258" y="627" type="line"/>
      <point x="359" y="627" type="line"/>
      <point x="420.0" y="627.0"/>
      <point x="446.0" y="594"/>
      <point x="446" y="530" type="curve" smooth="yes"/>
      <point x="446.0" y="454"/>
      <point x="426.0" y="411.0"/>
    </contour>
    <contour>
      <point x="344" y="330" type="line"/>
      <point x="433" y="330.0"/>
      <point x="454.0" y="286.0"/>
      <point x="454" y="211" type="curve" smooth="yes"/>
      <point x="454.0" y="123.0"/>
      <point x="422.0" y="83.0"/>
      <point x="352" y="83" type="curve" smooth="yes"/>
      <point x="258" y="83" type="line"/>
      <point x="258" y="330" type="line"/>
    </contour>
  </outline>
</glyph>
<glyph name="circumflex_grave" format="2">
  <advance width="606"/>
  <anchor x="301" y="564.0" name="_top"/>
  <outline>
    <contour>
      <point x="606" y="807" type="curve" smooth="yes"/>
      <point x="649" y="710" type="line"/>
      <point x="649" y="680" type="line"/>
      <point x="565" y="680" type="line"/>
      <point x="481" y="731" type="line" smooth="yes"/>
      <point x="427" y="765" name="inserted"/>
      <point x="400.0" y="798"/>
      <point x="400" y="836" type="curve" smooth="yes"/>
      <point x="400.0" y="878"/>
      <point x="435" y="909.0"/>
      <point x="487" y="909" type="curve" smooth="yes"/>
      <point x="549" y="909.0"/>
      <point x="574" y="879"/>
    </contour>
    <component base="circumflex" xOffset="9"/>
  </outline>
</glyph>
<glyph name="circumflex_tilde" format="2">
  <advance width="595"/>
  <anchor x="297.0" y="551.0" name="_top"/>
  <outline>
    <contour>
      <point x="415.0" y="720.0" type="line"/>
      <point x="544.0" y="579.0" type="line"/>
      <point x="544.0" y="557.0" type="line"/>
      <point x="418.0" y="557.0" type="line"/>
      <point x="206.0" y="653.0" type="line"/>
      <point x="379.0" y="653.0" type="line"/>
      <point x="163.0" y="557.0" type="line"/>
      <point x="51.0" y="557.0" type="line"/>
      <point x="51.0" y="579.0" type="line"/>
      <point x="181.0" y="720.0" type="line"/>
    </contour>
    <contour>
      <point x="372" y="765" type="curve" smooth="yes"/>
      <point x="310" y="765.0"/>
      <point x="239" y="814.0"/>
      <point x="224" y="814" type="curve" smooth="yes"/>
      <point x="201" y="814.0" name="inserted"/>
      <point x="185" y="798"/>
      <point x="177" y="763" type="curve"/>
      <point x="74" y="793" type="line"/>
      <point x="94" y="885" name="inserted"/>
      <point x="143" y="931.0"/>
      <point x="221" y="931" type="curve" smooth="yes"/>
      <point x="277" y="931.0"/>
      <point x="347" y="882.0"/>
      <point x="370" y="882" type="curve" smooth="yes"/>
      <point x="393" y="882.0" name="inserted"/>
      <point x="410" y="899"/>
      <point x="421" y="934" type="curve"/>
      <point x="523" y="902" type="line"/>
      <point x="499" y="811" name="inserted"/>
      <point x="450" y="765.0"/>
    </contour>
  </outline>
</glyph>
<glyph name="currency.proportional" format="2">
  <advance width="694"/>
  <outline>
    <contour>
      <point x="428" y="373" type="curve" smooth="yes"/>
      <point x="428" y="323"/>
      <point x="397" y="290"/>
      <point x="347" y="290" type="curve" smooth="yes"/>
      <point x="296" y="290"/>
      <point x="266" y="323"/>
      <point x="266" y="373" type="curve" smooth="yes"/>
      <point x="266" y="422"/>
      <point x="296" y="456"/>
      <point x="347" y="456" type="curve" smooth="yes"/>
      <point x="397" y="456"/>
      <point x="428" y="422"/>
    </contour>
    <contour>
      <point x="88" y="373" type="curve" smooth="yes"/>
      <point x="88" y="245"/>
      <point x="200" y="153"/>
      <point x="347" y="153" type="curve" smooth="yes"/>
      <point x="495" y="153"/>
      <point x="606" y="245"/>
      <point x="606" y="373" type="curve" smooth="yes"/>
      <point x="606" y="501"/>
      <point x="495" y="593"/>
      <point x="347" y="593" type="curve" smooth="yes"/>
      <point x="200" y="593"/>
      <point x="88" y="501"/>
    </contour>
    <contour>
      <point x="28" y="550" type="line"/>
      <point x="158" y="441" type="line"/>
      <point x="268" y="539" type="line"/>
      <point x="129" y="655" type="line"/>
    </contour>
    <contour>
      <point x="666" y="550" type="line"/>
      <point x="565" y="655" type="line"/>
      <point x="426" y="539" type="line"/>
      <point x="536" y="441" type="line"/>
    </contour>
    <contour>
      <point x="28" y="196" type="line"/>
      <point x="129" y="91" type="line"/>
      <point x="268" y="207" type="line"/>
      <point x="158" y="305" type="line"/>
    </contour>
    <contour>
      <point x="666" y="196" type="line"/>
      <point x="536" y="305" type="line"/>
      <point x="426" y="207" type="line"/>
      <point x="565" y="91" type="line"/>
    </contour>
  </outline>
</glyph>
<glyph name="horncomb" format="2">
  <anchor x="-396.18000000000006" y="444.0" name="_top"/>
  <outline>
    <contour>
      <point x="-510" y="466" type="line"/>
      <point x="-262" y="467"/>
      <point x="-187" y="518"/>
      <point x="-187" y="680" type="curve"/>
      <point x="-377" y="680" type="line"/>
      <point x="-379" y="545"/>
      <point x="-425" y="513"/>
      <point x="-567" y="513" type="curve"/>
    </contour>
  </outline>
</glyph>
<glyph name="ringhalfright" format="2">
  <advance width="595"/>
  <anchor x="297" y="566.0" name="_top"/>
  <outline>
    <contour>
      <point x="297" y="708" type="line"/>
      <point x="322" y="708"/>
      <point x="341" y="694"/>
      <point x="341" y="663" type="curve" smooth="yes"/>
      <point x="341" y="632"/>
      <point x="322" y="618"/>
      <point x="297" y="618" type="curve"/>
      <point x="297" y="553" type="line"/>
      <point x="388" y="553"/>
      <point x="458" y="589"/>
      <point x="458" y="663" type="curve" smooth="yes"/>
      <point x="458" y="737"/>
      <point x="388" y="773"/>
      <point x="297" y="773" type="curve"/>
    </contour>
  </outline>
</glyph>
<glyph name="sterling.alt" format="2">
  <advance width="664"/>
  <outline>
    <contour>
      <point x="23" y="410" type="line"/>
      <point x="23" y="308" type="line"/>
      <point x="527" y="308" type="line"/>
      <point x="527" y="410" type="line"/>
    </contour>
    <contour>
      <point x="22" y="0" type="line"/>
      <point x="631" y="0" type="line"/>
      <point x="631" y="247" type="line"/>
      <point x="522" y="247" type="line"/>
      <point x="512" y="188" type="line" smooth="yes"/>
      <point x="506" y="152"/>
      <point x="472.0" y="145.0"/>
      <point x="382" y="145" type="curve" smooth="yes"/>
      <point x="257" y="145" type="line"/>
      <point x="161" y="90" type="line"/>
      <point x="330" y="137"/>
      <point x="370.0" y="208"/>
      <point x="370" y="278" type="curve" smooth="yes"/>
      <point x="370" y="381"/>
      <point x="319.0" y="462.23985239852396"/>
      <point x="319" y="545" type="curve" smooth="yes"/>
      <point x="319.0" y="598"/>
      <point x="341.0" y="626.0"/>
      <point x="379" y="626" type="curve" smooth="yes"/>
      <point x="404" y="626"/>
      <point x="425" y="615"/>
      <point x="439" y="593" type="curve"/>
      <point x="475" y="600"/>
      <point x="461" y="630"/>
      <point x="409" y="630" type="curve"/>
      <point x="409" y="522" type="line"/>
      <point x="610" y="522" type="line"/>
      <point x="610" y="668" type="line"/>
      <point x="580" y="688"/>
      <point x="502" y="720"/>
      <point x="361" y="720" type="curve" smooth="yes"/>
      <point x="154" y="720"/>
      <point x="57" y="635"/>
      <point x="57" y="532" type="curve" smooth="yes"/>
      <point x="57.0" y="413"/>
      <point x="164.0" y="345.81184668989545"/>
      <point x="164" y="240" type="curve" smooth="yes"/>
      <point x="164" y="181"/>
      <point x="113" y="141"/>
      <point x="22" y="122" type="curve"/>
    </contour>
  </outline>
</glyph>
<glyph name="three.oldtab" format="2">
  <advance width="664"/>
  <outline>
    <contour>
      <point x="275" y="-57" type="curve" smooth="yes"/>
      <point x="345" y="-57"/>
      <point x="382" y="-16"/>
      <point x="382" y="61" type="curve" smooth="yes"/>
      <point x="382" y="130"/>
      <point x="354" y="181"/>
      <point x="256" y="181" type="curve" smooth="yes"/>
      <point x="195" y="181" type="line"/>
      <point x="195" y="266" type="line"/>
      <point x="241" y="266" type="line" smooth="yes"/>
      <point x="333" y="266"/>
      <point x="370" y="303"/>
      <point x="370" y="388" type="curve" smooth="yes"/>
      <point x="370" y="446"/>
      <point x="347" y="469"/>
      <point x="308" y="469" type="curve" smooth="yes"/>
      <point x="270" y="469"/>
      <point x="242" y="452"/>
      <point x="226" y="428" type="curve"/>
      <point x="221" y="436"/>
      <point x="221" y="482"/>
      <point x="259" y="485" type="curve"/>
      <point x="259" y="364" type="line"/>
      <point x="55" y="364" type="line"/>
      <point x="55" y="488" type="line"/>
      <point x="109" y="526"/>
      <point x="204" y="558"/>
      <point x="337" y="558" type="curve" smooth="yes"/>
      <point x="494" y="558"/>
      <point x="628" y="506"/>
      <point x="628" y="391" type="curve" smooth="yes"/>
      <point x="628" y="270"/>
      <point x="459" y="217"/>
      <point x="248" y="217" type="curve"/>
      <point x="269" y="235" type="line"/>
      <point x="540" y="235"/>
      <point x="648" y="166"/>
      <point x="648" y="54" type="curve" smooth="yes"/>
      <point x="648" y="-79"/>
      <point x="503" y="-150"/>
      <point x="323" y="-150" type="curve" smooth="yes"/>
      <point x="136" y="-150"/>
      <point x="57" y="-81"/>
      <point x="12" y="5" type="curve"/>
      <point x="102" y="62" type="line"/>
      <point x="139" y="-11"/>
      <point x="191" y="-57"/>
    </contour>
  </outline>
</glyph>
<glyph name="tilde.uc" format="2">
  <advance width="588"/>
  <anchor x="292" y="694.0" name="_top"/>
  <outline>
    <contour>
      <point x="368" y="751" type="curve" smooth="yes"/>
      <point x="316" y="751.0"/>
      <point x="236" y="793.0"/>
      <point x="219" y="793" type="curve" smooth="yes"/>
      <point x="198" y="793.0" name="inserted"/>
      <point x="183" y="779"/>
      <point x="176" y="750" type="curve"/>
      <point x="67" y="778" type="line"/>
      <point x="90" y="877" name="inserted"/>
      <point x="140" y="926.0"/>
      <point x="216" y="926" type="curve" smooth="yes"/>
      <point x="272" y="926.0"/>
      <point x="343" y="884.0"/>
      <point x="366" y="884" type="curve" smooth="yes"/>
      <point x="387" y="884.0" name="inserted"/>
      <point x="404" y="899"/>
      <point x="413" y="928" type="curve"/>
      <point x="521" y="898" type="line"/>
      <point x="496" y="800" name="inserted"/>
      <point x="446" y="751.0"/>
    </contour>
  </outline>
</glyph>
<glyph name="zero.slashold" format="2">
  <advance width="664"/>
  <outline>
    <contour>
      <point x="195" y="103" type="line"/>
      <point x="470" y="348" type="line"/>
      <point x="470" y="443" type="line"/>
      <point x="195" y="197" type="line"/>
    </contour>
    <contour>
      <point x="333" y="79" type="curve" smooth="yes"/>
      <point x="289" y="79"/>
      <point x="274" y="113"/>
      <point x="274" y="273" type="curve" smooth="yes"/>
      <point x="274" y="428"/>
      <point x="287" y="469"/>
      <point x="332" y="469" type="curve" smooth="yes"/>
      <point x="377" y="469"/>
      <point x="390" y="428"/>
      <point x="390" y="273" type="curve" smooth="yes"/>
      <point x="390" y="113"/>
      <point x="377" y="79"/>
    </contour>
    <contour>
      <point x="332" y="-10" type="curve" smooth="yes"/>
      <point x="518" y="-10"/>
      <point x="651" y="98"/>
      <point x="651" y="273" type="curve" smooth="yes"/>
      <point x="651" y="449"/>
      <point x="518" y="558"/>
      <point x="332" y="558" type="curve" smooth="yes"/>
      <point x="146" y="558"/>
      <point x="13" y="449"/>
      <point x="13" y="273" type="curve" smooth="yes"/>
      <point x="13" y="98"/>
      <point x="146" y="-10"/>
    </contour>
  </outline>
</glyph>
